G04 EAGLE Gerber RS-274X export*
G75*
%MOMM*%
%FSLAX34Y34*%
%LPD*%
%INTop Copper*%
%IPPOS*%
%AMOC8*
5,1,8,0,0,1.08239X$1,22.5*%
G01*
G04 Define Apertures*
%ADD10C,1.524000*%
%ADD11R,0.961800X1.711800*%
%ADD12P,1.64956X8X22.5*%
%ADD13R,1.100000X1.000000*%
%ADD14R,1.000000X1.100000*%
%ADD15C,0.508000*%
D10*
X142240Y151130D02*
X142240Y166370D01*
X167640Y166370D02*
X167640Y151130D01*
X193040Y151130D02*
X193040Y166370D01*
D11*
X140960Y91440D03*
X171460Y91440D03*
D12*
X287020Y30480D03*
X66040Y29210D03*
D13*
X165980Y59690D03*
X148980Y59690D03*
D14*
X213360Y46110D03*
X213360Y63110D03*
D13*
X210430Y91440D03*
X193430Y91440D03*
D15*
X193040Y133350D02*
X193040Y158750D01*
X193040Y133350D02*
X210430Y115960D01*
X210430Y91440D01*
X210430Y66040D01*
X213360Y63110D01*
X213360Y46110D02*
X228990Y30480D01*
X287020Y30480D01*
X165980Y59690D02*
X165100Y58810D01*
X165100Y50800D01*
X143510Y29210D01*
X66040Y29210D01*
X167640Y116840D02*
X167640Y158750D01*
X167640Y116840D02*
X157480Y106680D01*
X157480Y68190D01*
X165980Y59690D01*
X142240Y92720D02*
X142240Y158750D01*
X142240Y92720D02*
X140960Y91440D01*
X140960Y67710D02*
X148980Y59690D01*
X140960Y67710D02*
X140960Y91440D01*
X171460Y91440D02*
X193430Y91440D01*
M02*
