G04 EAGLE Gerber RS-274X export*
G75*
%MOMM*%
%FSLAX34Y34*%
%LPD*%
%IN*%
%IPPOS*%
%AMOC8*
5,1,8,0,0,1.08239X$1,22.5*%
G01*
G04 Define Apertures*
%ADD10C,0.254000*%
D10*
X0Y0D02*
X343894Y0D01*
X247166Y190000D01*
X96727Y190000D01*
X0Y0D01*
X265947Y94500D02*
X265947Y95500D01*
X265875Y96498D01*
X265733Y97487D01*
X265521Y98465D01*
X265239Y99424D01*
X264889Y100361D01*
X264474Y101271D01*
X263995Y102148D01*
X263454Y102990D01*
X262855Y103790D01*
X262200Y104546D01*
X261493Y105253D01*
X260737Y105908D01*
X259936Y106507D01*
X259095Y107048D01*
X258217Y107527D01*
X257308Y107943D01*
X256371Y108292D01*
X255411Y108574D01*
X254434Y108786D01*
X253444Y108929D01*
X252447Y109000D01*
X251447Y109000D01*
X250449Y108929D01*
X249459Y108786D01*
X248482Y108574D01*
X247523Y108292D01*
X246586Y107943D01*
X245676Y107527D01*
X244798Y107048D01*
X243957Y106507D01*
X243157Y105908D01*
X242401Y105253D01*
X241694Y104546D01*
X241039Y103790D01*
X240440Y102990D01*
X239899Y102148D01*
X239420Y101271D01*
X239004Y100361D01*
X238655Y99424D01*
X238373Y98465D01*
X238160Y97487D01*
X238018Y96498D01*
X237947Y95500D01*
X237947Y94500D01*
X238018Y93503D01*
X238160Y92513D01*
X238373Y91536D01*
X238655Y90576D01*
X239004Y89639D01*
X239420Y88729D01*
X239899Y87852D01*
X240440Y87010D01*
X241039Y86210D01*
X241694Y85454D01*
X242401Y84747D01*
X243157Y84092D01*
X243957Y83493D01*
X244798Y82952D01*
X245676Y82473D01*
X246586Y82057D01*
X247523Y81708D01*
X248482Y81426D01*
X249459Y81214D01*
X250449Y81071D01*
X251447Y81000D01*
X252447Y81000D01*
X253444Y81071D01*
X254434Y81214D01*
X255411Y81426D01*
X256371Y81708D01*
X257308Y82057D01*
X258217Y82473D01*
X259095Y82952D01*
X259936Y83493D01*
X260737Y84092D01*
X261493Y84747D01*
X262200Y85454D01*
X262855Y86210D01*
X263454Y87010D01*
X263995Y87852D01*
X264474Y88729D01*
X264889Y89639D01*
X265239Y90576D01*
X265521Y91536D01*
X265733Y92513D01*
X265875Y93503D01*
X265947Y94500D01*
X105947Y94500D02*
X105947Y95500D01*
X105875Y96498D01*
X105733Y97487D01*
X105521Y98465D01*
X105239Y99424D01*
X104889Y100361D01*
X104474Y101271D01*
X103995Y102148D01*
X103454Y102990D01*
X102855Y103790D01*
X102200Y104546D01*
X101493Y105253D01*
X100737Y105908D01*
X99936Y106507D01*
X99095Y107048D01*
X98217Y107527D01*
X97308Y107943D01*
X96371Y108292D01*
X95411Y108574D01*
X94434Y108786D01*
X93444Y108929D01*
X92447Y109000D01*
X91447Y109000D01*
X90449Y108929D01*
X89459Y108786D01*
X88482Y108574D01*
X87523Y108292D01*
X86586Y107943D01*
X85676Y107527D01*
X84798Y107048D01*
X83957Y106507D01*
X83157Y105908D01*
X82401Y105253D01*
X81694Y104546D01*
X81039Y103790D01*
X80440Y102990D01*
X79899Y102148D01*
X79420Y101271D01*
X79004Y100361D01*
X78655Y99424D01*
X78373Y98465D01*
X78160Y97487D01*
X78018Y96498D01*
X77947Y95500D01*
X77947Y94500D01*
X78018Y93503D01*
X78160Y92513D01*
X78373Y91536D01*
X78655Y90576D01*
X79004Y89639D01*
X79420Y88729D01*
X79899Y87852D01*
X80440Y87010D01*
X81039Y86210D01*
X81694Y85454D01*
X82401Y84747D01*
X83157Y84092D01*
X83957Y83493D01*
X84798Y82952D01*
X85676Y82473D01*
X86586Y82057D01*
X87523Y81708D01*
X88482Y81426D01*
X89459Y81214D01*
X90449Y81071D01*
X91447Y81000D01*
X92447Y81000D01*
X93444Y81071D01*
X94434Y81214D01*
X95411Y81426D01*
X96371Y81708D01*
X97308Y82057D01*
X98217Y82473D01*
X99095Y82952D01*
X99936Y83493D01*
X100737Y84092D01*
X101493Y84747D01*
X102200Y85454D01*
X102855Y86210D01*
X103454Y87010D01*
X103995Y87852D01*
X104474Y88729D01*
X104889Y89639D01*
X105239Y90576D01*
X105521Y91536D01*
X105733Y92513D01*
X105875Y93503D01*
X105947Y94500D01*
M02*
